<svg width="512" height="512" version="1.1" xmlns="http://www.w3.org/2000/svg" desc="Created with imagetracer.js version 1.2.6" ><path fill="rgb(106,27,154)" stroke="rgb(106,27,154)" stroke-width="1" opacity="0.47058823529411764" d="M 244.5 42 L 268 42.5 L 244.5 43 L 244.5 42 Z " /><path fill="rgb(106,27,154)" stroke="rgb(106,27,154)" stroke-width="1" opacity="0.47058823529411764" d="M 232.5 43 L 241 43.5 L 232.5 44 L 232.5 43 Z " /><path fill="rgb(106,27,154)" stroke="rgb(106,27,154)" stroke-width="1" opacity="0.47058823529411764" d="M 271.5 43 L 280 43.5 L 271.5 44 L 271.5 43 Z " /><path fill="rgb(106,27,154)" stroke="rgb(106,27,154)" stroke-width="1" opacity="0.47058823529411764" d="M 225.5 44 L 231 44.5 L 225.5 45 L 225.5 44 Z " /><path fill="rgb(106,27,154)" stroke="rgb(106,27,154)" stroke-width="1" opacity="0.47058823529411764" d="M 282.5 44 L 288 44.5 L 282.5 45 L 282.5 44 Z " /><path fill="rgb(106,27,154)" stroke="rgb(106,27,154)" stroke-width="1" opacity="0.47058823529411764" d="M 218.5 45 L 223 45.5 L 218.5 46 L 218.5 45 Z " /><path fill="rgb(106,27,154)" stroke="rgb(106,27,154)" stroke-width="1" opacity="0.47058823529411764" d="M 289.5 45 L 294 45.5 L 289.5 46 L 289.5 45 Z " /><path fill="rgb(106,27,154)" stroke="rgb(106,27,154)" stroke-width="1" opacity="0.47058823529411764" d="M 213.5 46 L 217 46.5 L 213.5 47 L 213.5 46 Z " /><path fill="rgb(106,27,154)" stroke="rgb(106,27,154)" stroke-width="1" opacity="0.47058823529411764" d="M 295.5 46 L 299 46.5 L 295.5 47 L 295.5 46 Z " /><path fill="rgb(106,27,154)" stroke="rgb(106,27,154)" stroke-width="1" opacity="0.47058823529411764" d="M 208.5 47 L 212 47.5 L 204.5 49 L 204.5 48 L 208.5 47 Z " /><path fill="rgb(106,27,154)" stroke="rgb(106,27,154)" stroke-width="1" opacity="0.47058823529411764" d="M 300.5 47 L 304 47.5 L 300.5 48 L 300.5 47 Z " /><path fill="rgb(106,27,154)" stroke="rgb(106,27,154)" stroke-width="1" opacity="0.47058823529411764" d="M 305.5 48 L 308 48.5 L 305.5 49 L 305.5 48 Z " /><path fill="rgb(106,27,154)" stroke="rgb(106,27,154)" stroke-width="1" opacity="0.47058823529411764" d="M 200.5 49 L 203 49.5 L 197.5 51 L 197.5 50 L 200.5 49 Z " /><path fill="rgb(106,27,154)" stroke="rgb(106,27,154)" stroke-width="1" opacity="0.47058823529411764" d="M 309.5 49 L 315 50.5 L 312.5 51 L 309.5 50 L 309.5 49 Z " /><path fill="rgb(106,27,154)" stroke="rgb(106,27,154)" stroke-width="1" opacity="0.47058823529411764" d="M 193.5 51 L 196 51.5 Q 178.2 56.2 163.5 64 L 163.5 63 L 193.5 51 Z " /><path fill="rgb(106,27,154)" stroke="rgb(106,27,154)" stroke-width="1" opacity="0.47058823529411764" d="M 316.5 51 L 333 56.5 L 331.5 57 L 316.5 52 L 316.5 51 Z " /><path fill="rgb(106,27,154)" stroke="rgb(106,27,154)" stroke-width="1" opacity="0.47058823529411764" d="M 334.5 57 L 338 58.5 L 336.5 59 L 334.5 57 Z " /><path fill="rgb(106,27,154)" stroke="rgb(106,27,154)" stroke-width="1" opacity="0.47058823529411764" d="M 339.5 59 L 349 63.5 L 347.5 64 L 339.5 60 L 339.5 59 Z " /><path fill="rgb(106,27,154)" stroke="rgb(106,27,154)" stroke-width="1" opacity="0.47058823529411764" d="M 352.5 65 Q 389.9 83.6 416 113.5 Q 434.3 133.7 447 159.5 L 445 158.5 Q 427.8 122.7 399.5 98 L 382.5 84 L 362.5 71 L 353.5 67 L 352.5 65 Z " /><path fill="rgb(106,27,154)" stroke="rgb(106,27,154)" stroke-width="1" opacity="0.47058823529411764" d="M 157.5 66 L 156.5 68 Q 121.1 85.6 96.5 114 L 113.5 96 Q 133.1 78.6 157.5 66 Z " /><path fill="rgb(106,27,154)" stroke="rgb(106,27,154)" stroke-width="1" opacity="0.47058823529411764" d="M 94.5 116 L 90.5 121 L 94.5 116 Z " /><path fill="rgb(106,27,154)" stroke="rgb(106,27,154)" stroke-width="1" opacity="0.47058823529411764" d="M 89.5 122 L 86.5 126 L 89.5 122 Z " /><path fill="rgb(106,27,154)" stroke="rgb(106,27,154)" stroke-width="1" opacity="0.47058823529411764" d="M 85.5 127 L 83.5 130 L 85.5 127 Z " /><path fill="rgb(106,27,154)" stroke="rgb(106,27,154)" stroke-width="1" opacity="0.47058823529411764" d="M 82.5 131 L 81.5 133 L 82.5 131 Z " /><path fill="rgb(106,27,154)" stroke="rgb(106,27,154)" stroke-width="1" opacity="0.47058823529411764" d="M 80.5 134 L 79.5 136 L 80.5 134 Z " /><path fill="rgb(106,27,154)" stroke="rgb(106,27,154)" stroke-width="1" opacity="0.47058823529411764" d="M 78.5 137 L 77 139.5 L 75.5 142 L 76 140.5 L 78.5 137 Z " /><path fill="rgb(106,27,154)" stroke="rgb(106,27,154)" stroke-width="1" opacity="0.47058823529411764" d="M 74.5 143 L 73.5 145 L 74.5 143 Z " /><path fill="rgb(106,27,154)" stroke="rgb(106,27,154)" stroke-width="1" opacity="0.47058823529411764" d="M 71.5 148 L 71 149.5 L 69.5 152 L 70 150.5 L 71.5 148 Z " /><path fill="rgb(106,27,154)" stroke="rgb(106,27,154)" stroke-width="1" opacity="0.47058823529411764" d="M 448.5 163 L 453 172.5 L 452 172.5 L 448 164.5 L 448.5 163 Z " /><path fill="rgb(106,27,154)" stroke="rgb(106,27,154)" stroke-width="1" opacity="0.47058823529411764" d="M 453.5 174 L 455 177.5 L 454 177.5 L 453.5 174 Z " /><path fill="rgb(106,27,154)" stroke="rgb(106,27,154)" stroke-width="1" opacity="0.47058823529411764" d="M 455.5 179 L 461 195.5 L 460 195.5 L 455.5 179 Z " /><path fill="rgb(106,27,154)" stroke="rgb(106,27,154)" stroke-width="1" opacity="0.47058823529411764" d="M 461.5 197 L 463 202.5 L 462 202.5 L 461.5 197 Z " /><path fill="rgb(106,27,154)" stroke="rgb(106,27,154)" stroke-width="1" opacity="0.47058823529411764" d="M 463.5 204 L 465 211.5 L 464 211.5 L 463.5 204 Z " /><path fill="rgb(106,27,154)" stroke="rgb(106,27,154)" stroke-width="1" opacity="0.47058823529411764" d="M 47.5 208 L 48 210.5 L 47 210.5 L 47.5 208 Z " /><path fill="rgb(106,27,154)" stroke="rgb(106,27,154)" stroke-width="1" opacity="0.47058823529411764" d="M 465.5 213 L 466 216.5 L 465 216.5 L 465.5 213 Z " /><path fill="rgb(106,27,154)" stroke="rgb(106,27,154)" stroke-width="1" opacity="0.47058823529411764" d="M 45.5 218 L 46 220.5 L 45 220.5 L 45.5 218 Z " /><path fill="rgb(106,27,154)" stroke="rgb(106,27,154)" stroke-width="1" opacity="0.47058823529411764" d="M 466.5 218 L 467 222.5 L 466 222.5 L 466.5 218 Z " /><path fill="rgb(106,27,154)" stroke="rgb(106,27,154)" stroke-width="1" opacity="0.47058823529411764" d="M 44.5 224 L 45 227.5 L 44 227.5 L 44.5 224 Z " /><path fill="rgb(106,27,154)" stroke="rgb(106,27,154)" stroke-width="1" opacity="0.47058823529411764" d="M 467.5 224 L 468 229.5 L 467 229.5 L 467.5 224 Z " /><path fill="rgb(106,27,154)" stroke="rgb(106,27,154)" stroke-width="1" opacity="0.47058823529411764" d="M 43.5 232 L 44 236.5 L 43 236.5 L 43.5 232 Z " /><path fill="rgb(106,27,154)" stroke="rgb(106,27,154)" stroke-width="1" opacity="0.47058823529411764" d="M 468.5 232 L 469 240.5 L 468 240.5 L 468.5 232 Z " /><path fill="rgb(106,27,154)" stroke="rgb(106,27,154)" stroke-width="1" opacity="0.47058823529411764" d="M 42.5 244 L 43 267.5 L 42 267.5 L 42.5 244 Z " /><path fill="rgb(106,27,154)" stroke="rgb(106,27,154)" stroke-width="1" opacity="0.47058823529411764" d="M 469.5 244 L 470 267.5 L 469 267.5 L 469.5 244 Z " /><path fill="rgb(106,27,154)" stroke="rgb(106,27,154)" stroke-width="1" opacity="0.47058823529411764" d="M 468.5 271 L 469 279.5 L 468 279.5 L 468.5 271 Z " /><path fill="rgb(106,27,154)" stroke="rgb(106,27,154)" stroke-width="1" opacity="0.47058823529411764" d="M 43.5 275 L 44 279.5 L 43 279.5 L 43.5 275 Z " /><path fill="rgb(106,27,154)" stroke="rgb(106,27,154)" stroke-width="1" opacity="0.47058823529411764" d="M 467.5 282 L 468 286.5 L 467 286.5 L 467.5 282 Z " /><path fill="rgb(106,27,154)" stroke="rgb(106,27,154)" stroke-width="1" opacity="0.47058823529411764" d="M 44.5 284 L 45 287.5 L 44 287.5 L 44.5 284 Z " /><path fill="rgb(106,27,154)" stroke="rgb(106,27,154)" stroke-width="1" opacity="0.47058823529411764" d="M 466.5 289 L 467 293.5 L 466 293.5 L 466.5 289 Z " /><path fill="rgb(106,27,154)" stroke="rgb(106,27,154)" stroke-width="1" opacity="0.47058823529411764" d="M 45.5 291 L 46 293.5 L 45 293.5 L 45.5 291 Z " /><path fill="rgb(106,27,154)" stroke="rgb(106,27,154)" stroke-width="1" opacity="0.47058823529411764" d="M 465.5 295 L 466 298.5 L 465 298.5 L 465.5 295 Z " /><path fill="rgb(106,27,154)" stroke="rgb(106,27,154)" stroke-width="1" opacity="0.47058823529411764" d="M 46.5 296 L 47 298.5 L 46 298.5 L 46.5 296 Z " /><path fill="rgb(106,27,154)" stroke="rgb(106,27,154)" stroke-width="1" opacity="0.47058823529411764" d="M 464.5 300 L 465 303.5 L 463.5 308 L 463 304.5 L 464.5 300 Z " /><path fill="rgb(106,27,154)" stroke="rgb(106,27,154)" stroke-width="1" opacity="0.47058823529411764" d="M 47.5 301 L 48 303.5 L 47 303.5 L 47.5 301 Z " /><path fill="rgb(106,27,154)" stroke="rgb(106,27,154)" stroke-width="1" opacity="0.47058823529411764" d="M 462.5 309 L 463 311.5 L 461.5 315 L 461 312.5 L 462.5 309 Z " /><path fill="rgb(106,27,154)" stroke="rgb(106,27,154)" stroke-width="1" opacity="0.47058823529411764" d="M 460.5 316 L 461 318.5 L 455.5 333 L 455 331.5 L 460.5 316 Z " /><path fill="rgb(106,27,154)" stroke="rgb(106,27,154)" stroke-width="1" opacity="0.47058823529411764" d="M 454.5 334 L 455 335.5 L 448.5 349 L 448 347.5 L 454.5 334 Z " /><path fill="rgb(106,27,154)" stroke="rgb(106,27,154)" stroke-width="1" opacity="0.47058823529411764" d="M 59.5 339 L 61 342.5 L 60 342.5 L 59.5 339 Z " /><path fill="rgb(106,27,154)" stroke="rgb(106,27,154)" stroke-width="1" opacity="0.47058823529411764" d="M 446.5 352 L 446 353.5 Q 427.7 391.2 397.5 417 L 414 399.5 Q 433 378.5 446.5 352 Z " /><path fill="rgb(106,27,154)" stroke="rgb(106,27,154)" stroke-width="1" opacity="0.47058823529411764" d="M 69.5 360 L 72 363.5 L 70 362.5 L 69.5 360 Z " /><path fill="rgb(106,27,154)" stroke="rgb(106,27,154)" stroke-width="1" opacity="0.47058823529411764" d="M 73.5 367 L 74.5 369 L 73.5 367 Z " /><path fill="rgb(106,27,154)" stroke="rgb(106,27,154)" stroke-width="1" opacity="0.47058823529411764" d="M 75.5 370 L 76.5 372 L 75.5 370 Z " /><path fill="rgb(106,27,154)" stroke="rgb(106,27,154)" stroke-width="1" opacity="0.47058823529411764" d="M 77.5 373 L 78.5 375 L 77.5 373 Z " /><path fill="rgb(106,27,154)" stroke="rgb(106,27,154)" stroke-width="1" opacity="0.47058823529411764" d="M 79.5 376 L 80.5 378 L 79.5 376 Z " /><path fill="rgb(106,27,154)" stroke="rgb(106,27,154)" stroke-width="1" opacity="0.47058823529411764" d="M 81.5 379 L 86 384.5 L 83 382.5 L 81.5 379 Z " /><path fill="rgb(106,27,154)" stroke="rgb(106,27,154)" stroke-width="1" opacity="0.47058823529411764" d="M 87.5 387 L 89.5 390 L 87.5 387 Z " /><path fill="rgb(106,27,154)" stroke="rgb(106,27,154)" stroke-width="1" opacity="0.47058823529411764" d="M 90.5 391 L 95.5 397 L 90.5 391 Z " /><path fill="rgb(106,27,154)" stroke="rgb(106,27,154)" stroke-width="1" opacity="0.47058823529411764" d="M 96.5 398 L 113.5 416 L 96.5 398 Z " /><path fill="rgb(106,27,154)" stroke="rgb(106,27,154)" stroke-width="1" opacity="0.47058823529411764" d="M 115.5 416 L 120.5 422 L 115.5 416 Z " /><path fill="rgb(106,27,154)" stroke="rgb(106,27,154)" stroke-width="1" opacity="0.47058823529411764" d="M 395.5 417 L 391.5 422 L 395.5 417 Z " /><path fill="rgb(106,27,154)" stroke="rgb(106,27,154)" stroke-width="1" opacity="0.47058823529411764" d="M 122.5 422 L 124.5 425 L 122.5 422 Z " /><path fill="rgb(106,27,154)" stroke="rgb(106,27,154)" stroke-width="1" opacity="0.47058823529411764" d="M 389.5 422 L 386.5 426 L 389.5 422 Z " /><path fill="rgb(106,27,154)" stroke="rgb(106,27,154)" stroke-width="1" opacity="0.47058823529411764" d="M 126.5 425 L 128.5 428 L 126.5 425 Z " /><path fill="rgb(106,27,154)" stroke="rgb(106,27,154)" stroke-width="1" opacity="0.47058823529411764" d="M 384.5 426 L 382.5 429 L 384.5 426 Z " /><path fill="rgb(106,27,154)" stroke="rgb(106,27,154)" stroke-width="1" opacity="0.47058823529411764" d="M 130.5 428 L 132.5 431 L 130.5 428 Z " /><path fill="rgb(106,27,154)" stroke="rgb(106,27,154)" stroke-width="1" opacity="0.47058823529411764" d="M 380.5 429 L 379.5 431 L 380.5 429 Z " /><path fill="rgb(106,27,154)" stroke="rgb(106,27,154)" stroke-width="1" opacity="0.47058823529411764" d="M 134.5 431 L 135.5 433 L 134.5 431 Z " /><path fill="rgb(106,27,154)" stroke="rgb(106,27,154)" stroke-width="1" opacity="0.47058823529411764" d="M 377.5 431 L 376.5 433 L 377.5 431 Z " /><path fill="rgb(106,27,154)" stroke="rgb(106,27,154)" stroke-width="1" opacity="0.47058823529411764" d="M 137.5 433 L 138.5 435 L 137.5 433 Z " /><path fill="rgb(106,27,154)" stroke="rgb(106,27,154)" stroke-width="1" opacity="0.47058823529411764" d="M 374.5 433 L 373.5 435 L 374.5 433 Z " /><path fill="rgb(106,27,154)" stroke="rgb(106,27,154)" stroke-width="1" opacity="0.47058823529411764" d="M 140.5 435 L 141.5 437 L 140.5 435 Z " /><path fill="rgb(106,27,154)" stroke="rgb(106,27,154)" stroke-width="1" opacity="0.47058823529411764" d="M 371.5 435 L 370.5 437 L 371.5 435 Z " /><path fill="rgb(106,27,154)" stroke="rgb(106,27,154)" stroke-width="1" opacity="0.47058823529411764" d="M 143.5 437 L 144.5 439 L 143.5 437 Z " /><path fill="rgb(106,27,154)" stroke="rgb(106,27,154)" stroke-width="1" opacity="0.47058823529411764" d="M 368.5 437 L 367.5 439 L 365.5 440 L 366.5 438 L 368.5 437 Z " /><path fill="rgb(106,27,154)" stroke="rgb(106,27,154)" stroke-width="1" opacity="0.47058823529411764" d="M 363.5 440 L 362.5 442 L 360.5 443 L 361.5 441 L 363.5 440 Z " /><path fill="rgb(106,27,154)" stroke="rgb(106,27,154)" stroke-width="1" opacity="0.47058823529411764" d="M 150.5 441 L 151.5 443 L 150.5 441 Z " /><path fill="rgb(106,27,154)" stroke="rgb(106,27,154)" stroke-width="1" opacity="0.47058823529411764" d="M 169.5 451 L 173 452.5 L 171.5 453 L 169.5 451 Z " /><path fill="rgb(106,27,154)" stroke="rgb(106,27,154)" stroke-width="1" opacity="0.47058823529411764" d="M 341.5 451 L 343 451.5 L 339.5 453 L 339.5 452 L 341.5 451 Z " /><path fill="rgb(106,27,154)" stroke="rgb(106,27,154)" stroke-width="1" opacity="0.47058823529411764" d="M 204.5 463 L 207 463.5 L 204.5 464 L 204.5 463 Z " /><path fill="rgb(106,27,154)" stroke="rgb(106,27,154)" stroke-width="1" opacity="0.47058823529411764" d="M 301.5 464 L 304 464.5 L 301.5 465 L 301.5 464 Z " /><path fill="rgb(106,27,154)" stroke="rgb(106,27,154)" stroke-width="1" opacity="0.47058823529411764" d="M 213.5 465 L 216 465.5 L 213.5 466 L 213.5 465 Z " /><path fill="rgb(106,27,154)" stroke="rgb(106,27,154)" stroke-width="1" opacity="0.47058823529411764" d="M 296.5 465 L 299 465.5 L 296.5 466 L 296.5 465 Z " /><path fill="rgb(106,27,154)" stroke="rgb(106,27,154)" stroke-width="1" opacity="0.47058823529411764" d="M 218.5 466 L 221 466.5 L 218.5 467 L 218.5 466 Z " /><path fill="rgb(106,27,154)" stroke="rgb(106,27,154)" stroke-width="1" opacity="0.47058823529411764" d="M 291.5 466 L 294 466.5 L 291.5 467 L 291.5 466 Z " /><path fill="rgb(106,27,154)" stroke="rgb(106,27,154)" stroke-width="1" opacity="0.47058823529411764" d="M 225.5 467 L 229 467.5 L 225.5 468 L 225.5 467 Z " /><path fill="rgb(106,27,154)" stroke="rgb(106,27,154)" stroke-width="1" opacity="0.47058823529411764" d="M 284.5 467 L 288 467.5 L 284.5 468 L 284.5 467 Z " /><path fill="rgb(106,27,154)" stroke="rgb(106,27,154)" stroke-width="1" opacity="0.47058823529411764" d="M 232.5 468 L 237 468.5 L 232.5 469 L 232.5 468 Z " /><path fill="rgb(106,27,154)" stroke="rgb(106,27,154)" stroke-width="1" opacity="0.47058823529411764" d="M 275.5 468 L 280 468.5 L 275.5 469 L 275.5 468 Z " /><path fill="rgb(106,27,154)" stroke="rgb(106,27,154)" stroke-width="1" opacity="0.47058823529411764" d="M 244.5 469 L 267 469.5 L 244.5 470 L 244.5 469 Z " /><path fill="rgb(0,0,0)" stroke="rgb(0,0,0)" stroke-width="1" opacity="0" d="M 0 0 L 512 0 L 512 512 L 0 512 L 0 0 Z M 245 42 L 244 43 L 233 43 L 232 44 L 209 47 L 172 59 Q 138 73 114 96 Q 79 126 59 172 L 47 209 L 44 225 L 44 232 L 43 233 L 43 244 L 42 245 L 42 268 L 43 269 L 44 288 L 49 312 L 55 331 Q 70 370 96 399 Q 127 433 172 453 L 205 464 L 219 467 L 232 468 L 233 469 L 244 469 L 245 470 L 267 470 L 268 469 L 288 468 L 312 463 L 331 457 Q 369 442 398 417 Q 433 386 453 341 L 465 304 L 468 281 L 469 280 L 469 269 L 470 268 L 470 245 L 469 244 L 468 225 L 463 201 L 457 182 Q 442 142 416 114 Q 386 79 341 59 Q 319 50 294 45 L 281 44 L 280 43 L 269 43 L 268 42 L 245 42 Z " /><path fill="rgb(243,237,246)" stroke="rgb(243,237,246)" stroke-width="1" opacity="1" d="M 127 168 L 145.5 168 L 146 169.5 L 210.5 271 L 211 265.5 L 210 264.5 L 210 168 L 223.5 168 L 224 168.5 L 224 289 L 206.5 289 L 206 287.5 L 146 195.5 L 140.5 185 L 140 188.5 L 141 189.5 L 141 289 L 127.5 289 L 127 288.5 L 127 168 Z " /><path fill="rgb(243,237,246)" stroke="rgb(243,237,246)" stroke-width="1" opacity="1" d="M 256 168 L 317.5 168 L 318 168.5 L 318 179.5 L 316.5 181 L 271 181 L 271 221 L 313.5 221 L 314 221.5 L 314 234 L 271 234 L 271 276 L 320.5 276 L 321 276.5 L 321 289 L 256 289 L 256 168 Z " /><path fill="rgb(243,237,246)" stroke="rgb(243,237,246)" stroke-width="1" opacity="1" d="M 332 168 L 415.5 168 L 416 168.5 L 416 181 L 381 181 L 381 288.5 L 380.5 289 L 366 289 L 366 181.5 L 365.5 181 L 332 181 L 332 168 Z " /><path fill="rgb(243,237,246)" stroke="rgb(243,237,246)" stroke-width="1" opacity="1" d="M 89.5 272 L 94.5 272 L 101 277.5 Q 103 288 96.5 290 L 89.5 291 L 83 285.5 Q 81 275 87.5 273 L 89.5 272 Z " /><path fill="rgb(243,237,246)" stroke="rgb(243,237,246)" stroke-width="1" opacity="1" d="M 196.5 318 L 211.5 318 L 217 320.5 Q 218.3 326.6 215.5 326 L 211.5 324 L 200.5 323 Q 191.9 324.9 187 330.5 Q 180.1 337.6 182 353.5 Q 184.4 362.5 191.5 367 L 195.5 369 L 202.5 370 Q 204 367.5 209.5 369 L 217 366 Q 218.5 371.4 215.5 373 Q 207.9 376.9 194.5 375 Q 186 372.5 181 366.5 L 175 353.5 L 175 341.5 L 177 334.5 L 183 325 L 190.5 320 L 196.5 318 Z " /><path fill="rgb(243,237,246)" stroke="rgb(243,237,246)" stroke-width="1" opacity="1" d="M 240.5 333 Q 255.2 331.3 260 339.5 L 264 348.5 L 264 358.5 Q 262.3 367.8 255.5 372 Q 250.3 376.8 238.5 375 Q 231.8 372.8 228 367.5 L 225 361.5 L 225 347.5 L 230 338 L 240.5 333 Z M 241 339 L 237 341 L 234 344 L 231 352 L 231 358 L 233 364 Q 235 369 242 370 L 248 370 L 254 367 L 257 361 Q 259 348 254 343 Q 251 337 241 339 Z " /><path fill="rgb(243,237,246)" stroke="rgb(243,237,246)" stroke-width="1" opacity="1" d="M 315.5 333 Q 326.7 332.8 331 339.5 Q 335.5 345.3 334 356 L 306.5 356 Q 305.5 356 306 360.5 L 311.5 368 Q 314.5 371 321.5 370 L 330.5 366 L 331 372 Q 325.3 376.5 312.5 375 Q 305.3 373.2 302 367.5 Q 297.6 361.4 299 349.5 Q 300.9 340.4 307.5 336 L 315.5 333 Z M 315 339 L 313 340 Q 307 342 306 349 L 307 351 L 327 351 L 326 344 Q 324 338 315 339 Z " /><path fill="rgb(243,237,246)" stroke="rgb(243,237,246)" stroke-width="1" opacity="1" d="M 274 334 L 281 334 L 281 340.5 L 282 340.5 L 287.5 334 L 295 334 L 295 340 Q 287 338.3 284 342.5 L 281 348.5 L 281 374 L 274.5 374 L 274 373.5 L 274 334 Z " /><path fill="rgb(122,31,161)" stroke="rgb(122,31,161)" stroke-width="1" opacity="0.996078431372549" d="M 107.5 103 L 210 204.5 L 108.5 104 L 95.5 116 L 107.5 103 Z " /><path fill="rgb(122,31,161)" stroke="rgb(122,31,161)" stroke-width="1" opacity="0.996078431372549" d="M 93.5 118 L 90.5 122 L 93.5 118 Z " /><path fill="rgb(122,31,161)" stroke="rgb(122,31,161)" stroke-width="1" opacity="0.996078431372549" d="M 88.5 124 L 86.5 127 L 88.5 124 Z " /><path fill="rgb(122,31,161)" stroke="rgb(122,31,161)" stroke-width="1" opacity="0.996078431372549" d="M 85.5 128 L 83.5 131 L 85.5 128 Z " /><path fill="rgb(122,31,161)" stroke="rgb(122,31,161)" stroke-width="1" opacity="0.996078431372549" d="M 82.5 132 L 81.5 134 L 82.5 132 Z " /><path fill="rgb(122,31,161)" stroke="rgb(122,31,161)" stroke-width="1" opacity="0.996078431372549" d="M 80.5 135 L 79.5 137 L 80.5 135 Z " /><path fill="rgb(122,31,161)" stroke="rgb(122,31,161)" stroke-width="1" opacity="0.996078431372549" d="M 78.5 138 L 77.5 140 L 78.5 138 Z " /><path fill="rgb(122,31,161)" stroke="rgb(122,31,161)" stroke-width="1" opacity="0.996078431372549" d="M 76.5 141 L 75.5 143 L 76.5 141 Z " /><path fill="rgb(122,31,161)" stroke="rgb(122,31,161)" stroke-width="1" opacity="0.996078431372549" d="M 74.5 144 L 73.5 146 L 74.5 144 Z " /><path fill="rgb(122,31,161)" stroke="rgb(122,31,161)" stroke-width="1" opacity="0.996078431372549" d="M 70.5 151 L 69.5 153 L 70.5 151 Z " /><path fill="rgb(122,31,161)" stroke="rgb(122,31,161)" stroke-width="1" opacity="0.996078431372549" d="M 46.5 215 L 47 217.5 L 46 217.5 L 46.5 215 Z " /><path fill="rgb(122,31,161)" stroke="rgb(122,31,161)" stroke-width="1" opacity="0.996078431372549" d="M 225.5 220 L 255.5 251 L 225.5 220 Z " /><path fill="rgb(122,31,161)" stroke="rgb(122,31,161)" stroke-width="1" opacity="0.996078431372549" d="M 45.5 221 L 46 223.5 L 45 223.5 L 45.5 221 Z " /><path fill="rgb(122,31,161)" stroke="rgb(122,31,161)" stroke-width="1" opacity="0.996078431372549" d="M 44.5 228 L 45 231.5 L 44 231.5 L 44.5 228 Z " /><path fill="rgb(122,31,161)" stroke="rgb(122,31,161)" stroke-width="1" opacity="0.996078431372549" d="M 43.5 237 L 44 243.5 L 43 243.5 L 43.5 237 Z " /><path fill="rgb(122,31,161)" stroke="rgb(122,31,161)" stroke-width="1" opacity="0.996078431372549" d="M 271.5 266 L 280.5 276 L 271.5 266 Z " /><path fill="rgb(122,31,161)" stroke="rgb(122,31,161)" stroke-width="1" opacity="0.996078431372549" d="M 43.5 268 L 44 274.5 L 43 274.5 L 43.5 268 Z " /><path fill="rgb(122,31,161)" stroke="rgb(122,31,161)" stroke-width="1" opacity="0.996078431372549" d="M 44.5 280 L 45 283.5 L 44 283.5 L 44.5 280 Z " /><path fill="rgb(122,31,161)" stroke="rgb(122,31,161)" stroke-width="1" opacity="0.996078431372549" d="M 45.5 288 L 46 290.5 L 45 290.5 L 45.5 288 Z " /><path fill="rgb(122,31,161)" stroke="rgb(122,31,161)" stroke-width="1" opacity="0.996078431372549" d="M 295.5 290 L 409 404.5 L 396 416.5 L 408 403.5 L 295.5 290 Z " /><path fill="rgb(122,31,161)" stroke="rgb(122,31,161)" stroke-width="1" opacity="0.996078431372549" d="M 48.5 303 L 49 305.5 L 48 305.5 L 48.5 303 Z " /><path fill="rgb(122,31,161)" stroke="rgb(122,31,161)" stroke-width="1" opacity="0.996078431372549" d="M 69.5 359 L 70.5 361 L 69.5 359 Z " /><path fill="rgb(122,31,161)" stroke="rgb(122,31,161)" stroke-width="1" opacity="0.996078431372549" d="M 73.5 366 L 74.5 368 L 73.5 366 Z " /><path fill="rgb(122,31,161)" stroke="rgb(122,31,161)" stroke-width="1" opacity="0.996078431372549" d="M 75.5 369 L 76.5 371 L 75.5 369 Z " /><path fill="rgb(122,31,161)" stroke="rgb(122,31,161)" stroke-width="1" opacity="0.996078431372549" d="M 77.5 372 L 78.5 374 L 77.5 372 Z " /><path fill="rgb(122,31,161)" stroke="rgb(122,31,161)" stroke-width="1" opacity="0.996078431372549" d="M 79.5 375 L 80.5 377 L 79.5 375 Z " /><path fill="rgb(122,31,161)" stroke="rgb(122,31,161)" stroke-width="1" opacity="0.996078431372549" d="M 81.5 378 L 82.5 380 L 81.5 378 Z " /><path fill="rgb(122,31,161)" stroke="rgb(122,31,161)" stroke-width="1" opacity="0.996078431372549" d="M 84.5 382 L 85.5 384 L 84.5 382 Z " /><path fill="rgb(122,31,161)" stroke="rgb(122,31,161)" stroke-width="1" opacity="0.996078431372549" d="M 86.5 385 L 89.5 389 L 86.5 385 Z " /><path fill="rgb(122,31,161)" stroke="rgb(122,31,161)" stroke-width="1" opacity="0.996078431372549" d="M 90.5 390 L 94.5 395 L 90.5 390 Z " /><path fill="rgb(122,31,161)" stroke="rgb(122,31,161)" stroke-width="1" opacity="0.996078431372549" d="M 96.5 397 L 114.5 416 L 96.5 397 Z " /><path fill="rgb(122,31,161)" stroke="rgb(122,31,161)" stroke-width="1" opacity="0.996078431372549" d="M 118.5 418 L 121.5 422 L 118.5 418 Z " /><path fill="rgb(122,31,161)" stroke="rgb(122,31,161)" stroke-width="1" opacity="0.996078431372549" d="M 393.5 418 L 390.5 422 L 393.5 418 Z " /><path fill="rgb(122,31,161)" stroke="rgb(122,31,161)" stroke-width="1" opacity="0.996078431372549" d="M 123.5 422 L 125.5 425 L 123.5 422 Z " /><path fill="rgb(122,31,161)" stroke="rgb(122,31,161)" stroke-width="1" opacity="0.996078431372549" d="M 387.5 423 L 385.5 426 L 387.5 423 Z " /><path fill="rgb(122,31,161)" stroke="rgb(122,31,161)" stroke-width="1" opacity="0.996078431372549" d="M 128.5 426 L 129.5 428 L 128.5 426 Z " /><path fill="rgb(122,31,161)" stroke="rgb(122,31,161)" stroke-width="1" opacity="0.996078431372549" d="M 383.5 426 L 381.5 429 L 383.5 426 Z " /><path fill="rgb(122,31,161)" stroke="rgb(122,31,161)" stroke-width="1" opacity="0.996078431372549" d="M 132.5 429 L 133.5 431 L 132.5 429 Z " /><path fill="rgb(122,31,161)" stroke="rgb(122,31,161)" stroke-width="1" opacity="0.996078431372549" d="M 379.5 429 L 378.5 431 L 379.5 429 Z " /><path fill="rgb(122,31,161)" stroke="rgb(122,31,161)" stroke-width="1" opacity="0.996078431372549" d="M 135.5 431 L 136.5 433 L 135.5 431 Z " /><path fill="rgb(122,31,161)" stroke="rgb(122,31,161)" stroke-width="1" opacity="0.996078431372549" d="M 376.5 431 L 375.5 433 L 376.5 431 Z " /><path fill="rgb(122,31,161)" stroke="rgb(122,31,161)" stroke-width="1" opacity="0.996078431372549" d="M 138.5 433 L 139.5 435 L 138.5 433 Z " /><path fill="rgb(122,31,161)" stroke="rgb(122,31,161)" stroke-width="1" opacity="0.996078431372549" d="M 373.5 433 L 372.5 435 L 373.5 433 Z " /><path fill="rgb(122,31,161)" stroke="rgb(122,31,161)" stroke-width="1" opacity="0.996078431372549" d="M 141.5 435 L 142.5 437 L 141.5 435 Z " /><path fill="rgb(122,31,161)" stroke="rgb(122,31,161)" stroke-width="1" opacity="0.996078431372549" d="M 370.5 435 L 369.5 437 L 370.5 435 Z " /><path fill="rgb(122,31,161)" stroke="rgb(122,31,161)" stroke-width="1" opacity="0.996078431372549" d="M 144.5 437 L 145.5 439 L 144.5 437 Z " /><path fill="rgb(122,31,161)" stroke="rgb(122,31,161)" stroke-width="1" opacity="0.996078431372549" d="M 365.5 438 L 364.5 440 L 365.5 438 Z " /><path fill="rgb(122,31,161)" stroke="rgb(122,31,161)" stroke-width="1" opacity="0.996078431372549" d="M 151.5 441 L 152.5 443 L 151.5 441 Z " /><path fill="rgb(122,31,161)" stroke="rgb(122,31,161)" stroke-width="1" opacity="0.996078431372549" d="M 360.5 441 L 359.5 443 L 360.5 441 Z " /><path fill="rgb(122,31,161)" stroke="rgb(122,31,161)" stroke-width="1" opacity="0.996078431372549" d="M 303.5 463 L 306 463.5 L 303.5 464 L 303.5 463 Z " /><path fill="rgb(122,31,161)" stroke="rgb(122,31,161)" stroke-width="1" opacity="0.996078431372549" d="M 221.5 466 L 224 466.5 L 221.5 467 L 221.5 466 Z " /><path fill="rgb(122,31,161)" stroke="rgb(122,31,161)" stroke-width="1" opacity="0.996078431372549" d="M 288.5 466 L 291 466.5 L 288.5 467 L 288.5 466 Z " /><path fill="rgb(122,31,161)" stroke="rgb(122,31,161)" stroke-width="1" opacity="0.996078431372549" d="M 229.5 467 L 232 467.5 L 229.5 468 L 229.5 467 Z " /><path fill="rgb(122,31,161)" stroke="rgb(122,31,161)" stroke-width="1" opacity="0.996078431372549" d="M 280.5 467 L 284 467.5 L 280.5 468 L 280.5 467 Z " /><path fill="rgb(122,31,161)" stroke="rgb(122,31,161)" stroke-width="1" opacity="0.996078431372549" d="M 237.5 468 L 244 468.5 L 237.5 469 L 237.5 468 Z " /><path fill="rgb(122,31,161)" stroke="rgb(122,31,161)" stroke-width="1" opacity="0.996078431372549" d="M 268.5 468 L 275 468.5 L 268.5 469 L 268.5 468 Z " /><path fill="rgb(106,27,154)" stroke="rgb(106,27,154)" stroke-width="1" opacity="1" d="M 241.5 43 L 270.5 43 L 271.5 44 L 288.5 45 L 308.5 49 L 338.5 59 Q 383.5 78.5 414 112.5 Q 439.6 140.4 455 178.5 L 463 203.5 L 467 223.5 L 468 240.5 L 469 241.5 L 469 270.5 L 468 271.5 L 468 281.5 L 463 308.5 L 455 333.5 L 448 349.5 Q 432.5 380.5 409.5 404 L 296.5 290 L 321 290 L 321 276 L 281.5 276 L 271 265.5 L 271 234 L 314.5 234 L 315 233.5 L 315 221 L 271 221 L 271 181 L 317.5 181 L 318 180.5 L 318 167 L 256 167 L 256 249.5 L 225 219.5 L 225 167.5 L 224.5 167 L 210 167 L 209.5 204 L 108 102.5 L 112.5 98 Q 137.8 74.8 171.5 60 L 203.5 49 L 223.5 45 L 240.5 44 L 241.5 43 Z M 331 167 L 331 181 L 366 181 L 366 182 L 366 290 L 381 290 L 381 290 L 381 181 L 416 181 L 416 168 L 416 167 L 331 167 Z " /><path fill="rgb(123,31,162)" stroke="rgb(123,31,162)" stroke-width="1" opacity="1" d="M 107.5 104 L 210 205.5 L 210 264.5 Q 212.3 265.7 211 270.5 L 210 270.5 L 147 171.5 L 146 168 L 127.5 168 L 127 168.5 L 127 289 L 140.5 289 L 141 288.5 L 141 189.5 L 140 185.5 L 141 185.5 L 146 195.5 L 206 289 L 223.5 289 L 224 288.5 L 224 168 L 210 167.5 L 225 167 L 225 220.5 L 256 251.5 L 256 289 L 321 289.5 L 295 290.5 L 408 404.5 Q 376 439 327.5 457 L 307.5 463 L 287.5 467 L 268.5 468 L 267.5 469 L 244.5 469 L 243.5 468 L 224.5 467 L 204.5 463 L 184.5 457 L 167.5 450 Q 124.3 429.7 95 395.5 Q 68.5 366 54 324.5 L 45 287.5 L 44 268.5 L 43 267.5 L 43 244.5 L 44 243.5 L 44 232.5 L 45 231.5 L 45 224.5 L 48 208.5 Q 52.9 187.4 61 169.5 Q 78.4 130.9 107.5 104 Z M 90 272 L 88 273 Q 81 275 83 286 L 90 291 L 97 290 Q 103 288 101 278 L 95 272 L 90 272 Z M 197 318 L 191 320 L 183 325 L 177 335 L 175 342 L 175 354 L 181 367 Q 186 372 195 375 Q 208 377 216 373 Q 219 371 217 366 L 210 369 Q 204 368 203 370 L 196 369 L 192 367 Q 184 363 182 354 Q 180 338 187 331 Q 192 325 201 323 L 212 324 L 216 326 Q 218 327 217 321 L 212 318 L 197 318 Z M 241 333 L 230 338 L 225 348 L 225 362 L 228 368 Q 232 373 239 375 Q 250 377 256 372 Q 262 368 264 359 L 264 349 L 260 340 Q 255 331 241 333 Z M 316 333 L 308 336 Q 301 340 299 350 Q 298 361 302 368 Q 305 373 313 375 Q 325 377 331 372 L 331 366 L 322 370 Q 315 371 312 368 L 306 361 Q 305 356 307 356 L 334 356 Q 336 345 331 340 Q 327 333 316 333 Z M 274 334 L 274 374 L 275 374 L 281 374 L 281 349 L 284 343 Q 287 338 295 340 L 295 334 L 288 334 L 282 341 L 281 341 L 281 334 L 274 334 Z " /><path fill="rgb(123,31,162)" stroke="rgb(123,31,162)" stroke-width="1" opacity="1" d="M 256.5 167 L 318 167.5 L 256.5 168 L 256.5 167 Z " /><path fill="rgb(123,31,162)" stroke="rgb(123,31,162)" stroke-width="1" opacity="1" d="M 331 167 L 416 167.5 L 332 168 L 331.5 181 L 331 167 Z " /><path fill="rgb(123,31,162)" stroke="rgb(123,31,162)" stroke-width="1" opacity="1" d="M 314.5 221 L 315 233.5 L 314 233.5 L 314.5 221 Z " /><path fill="rgb(123,31,162)" stroke="rgb(123,31,162)" stroke-width="1" opacity="1" d="M 271.5 267 L 279.5 276 L 271 276 L 271.5 267 Z " /><path fill="rgb(123,31,162)" stroke="rgb(123,31,162)" stroke-width="1" opacity="1" d="M 366.5 289 L 381 289.5 L 366.5 290 L 366.5 289 Z " /><path fill="rgb(123,31,162)" stroke="rgb(123,31,162)" stroke-width="1" opacity="1" d="M 240.5 339 Q 250.6 337.4 254 342.5 Q 259 348 257 360.5 L 254 367 L 247.5 370 L 241.5 370 Q 235.4 368.6 233 363.5 L 231 357.5 L 231 351.5 L 234 343.5 L 236.5 341 L 240.5 339 Z " /><path fill="rgb(123,31,162)" stroke="rgb(123,31,162)" stroke-width="1" opacity="1" d="M 314.5 339 Q 323.9 337.6 326 343.5 L 327 351 L 306.5 351 L 306 348.5 Q 307.4 342.4 312.5 340 L 314.5 339 Z " /></svg>